<svg xmlns="http://www.w3.org/2000/svg">
    <symbol id="bookmark" viewbox="0 0 24 24">
      <title>bookmark</title><path d="M17.22,4H6.78A0.76,0.76,0,0,0,6,4.73V19.27a0.72,0.72,0,0,0,.44.66,0.83,0.83,0,0,0,.83-0.09L12,16.33l4.73,3.52a0.82,0.82,0,0,0,.49.16,0.83,0.83,0,0,0,.34-0.07A0.72,0.72,0,0,0,18,19.27V4.73A0.76,0.76,0,0,0,17.22,4ZM16.43,17.76l-3.95-2.93a0.83,0.83,0,0,0-1,0L7.57,17.76V5.45h8.87v12.3Z"/>
    </symbol>
    <symbol id="createrasterlayer" viewbox="0 0 24 24">
      <title>raster-2</title><path d="M18.7,5.3V18.7H5.3V5.3H18.7M20,4H4V20H20V4h0Z"/><path d="M11.85,13.06h-1.3V16H8.91V8h2.95A3.33,3.33,0,0,1,14,8.66a2.17,2.17,0,0,1,.76,1.77,2.44,2.44,0,0,1-.35,1.35,2.4,2.4,0,0,1-1.07.86l1.72,3.24V16H13.34Zm-1.3-1.32h1.32a1.35,1.35,0,0,0,1-.31,1.12,1.12,0,0,0,.34-0.86,1.2,1.2,0,0,0-.32-0.88,1.33,1.33,0,0,0-1-.32H10.54v2.38Z"/>
    </symbol>
    <symbol id="createvectorlayer" viewbox="0 0 24 24">
      <title>vector</title><path d="M20,8.36V4H15.64V5.45H8.36V4H4V8.36H5.45v7.27H4V20H8.36V18.55h7.27V20H20V15.64H18.55V8.36H20ZM5.45,5.45H6.91V6.91H5.45V5.45ZM6.91,18.55H5.45V17.09H6.91v1.45Zm8.73-1.45H8.36V15.64H6.91V8.36H8.36V6.91h7.27V8.36h1.45v7.27H15.64v1.45Zm2.91,1.45H17.09V17.09h1.45v1.45ZM17.09,6.91V5.45h1.45V6.91H17.09Z"/><path d="M11.85,14L13.25,9.3h1.42l-2.16,6.2H11.18L9,9.3h1.42Z"/>
    </symbol>
    <symbol id="download" viewbox="0 0 24 24">
      <title>download</title><path d="M18.29,9.65H14.69V4H9.31V9.65H5.71L12,16.24ZM5.71,18.12V20H18.29V18.12H5.71Z"/>
    </symbol>
    <symbol id="edittool" viewbox="0 0 24 24">
      <title>edit</title><path d="M4,16.67V20H7.33l9.83-9.83L13.83,6.84ZM19.74,7.59a0.89,0.89,0,0,0,0-1.25L17.66,4.26a0.89,0.89,0,0,0-1.25,0L14.78,5.89l3.33,3.33Z"/>
    </symbol>
    <symbol id="gmxprint" viewbox="0 0 24 24">
      <title>print</title><path d="M17.6,8.65H6.4A2.44,2.44,0,0,0,4,11.14v5H7.2v3.32h9.6V16.11H20v-5A2.44,2.44,0,0,0,17.6,8.65Zm-2.4,9.13H8.8V13.63h6.4v4.15ZM17.6,12a0.83,0.83,0,1,1,.8-0.83A0.82,0.82,0,0,1,17.6,12ZM16.8,4.5H7.2V7.82h9.6V4.5Z"/>
    </symbol>
    <symbol id="grid-2" viewbox="0 0 24 24">
      <title>grid-2</title><path d="M18.4,4H5.6A1.6,1.6,0,0,0,4,5.6V18.4A1.6,1.6,0,0,0,5.6,20H18.4A1.6,1.6,0,0,0,20,18.4V5.6A1.6,1.6,0,0,0,18.4,4ZM8.8,18.4H5.6V15.2H8.8v3.2Zm0-4.8H5.6V10.4H8.8v3.2Zm0-4.8H5.6V5.6H8.8V8.8Zm4.8,9.6H10.4V15.2h3.2v3.2Zm0-4.8H10.4V10.4h3.2v3.2Zm0-4.8H10.4V5.6h3.2V8.8Zm4.8,9.6H15.2V15.2h3.2v3.2h0Zm0-4.8H15.2V10.4h3.2v3.2h0Zm0-4.8H15.2V5.6h3.2V8.8h0Z"/>
    </symbol>
    <symbol id="gridtool" viewbox="0 0 24 24">
      <title>grid</title><path d="M15.77,6.64h-3V4.8a0.8,0.8,0,0,0-1.6,0V6.64h-3V4.8a0.8,0.8,0,1,0-1.6,0V6.64H4.8a0.8,0.8,0,1,0,0,1.6H6.64v3H4.8a0.8,0.8,0,0,0,0,1.6H6.64v3H4.8a0.8,0.8,0,1,0,0,1.6H6.64V19.2a0.8,0.8,0,1,0,1.6,0V17.36h3V19.2a0.8,0.8,0,0,0,1.6,0V17.36h3V19.2a0.8,0.8,0,1,0,1.6,0V17.36H19.2a0.8,0.8,0,1,0,0-1.6H17.36v-3H19.2a0.8,0.8,0,0,0,0-1.6H17.36v-3H19.2a0.8,0.8,0,1,0,0-1.6H17.36V4.8a0.8,0.8,0,0,0-1.6,0V6.64m0,1.6v3h-3v-3h3Zm-7.53,0h3v3h-3v-3Zm0,7.53v-3h3v3h-3Zm7.53,0h-3v-3h3v3Z"/>
    </symbol>
    <symbol id="hide-off" viewbox="0 0 24 24">
      <title>fullscreen-off</title><path d="M4,16.57H7.43V20H9.71V14.29H4v2.29ZM7.43,7.43H4V9.71H9.71V4H7.43V7.43ZM14.29,20h2.29V16.57H20V14.29H14.29V20ZM16.57,7.43V4H14.29V9.71H20V7.43H16.57Z"/>
    </symbol>
    <symbol id="hide" viewbox="0 0 24 24">
      <title>fullscreen</title><path d="M6.29,14.29H4V20H9.71V17.71H6.29V14.29ZM4,9.71H6.29V6.29H9.71V4H4V9.71Zm13.71,8H14.29V20H20V14.29H17.71v3.43ZM14.29,4V6.29h3.43V9.71H20V4H14.29Z"/>
    </symbol>
    <symbol id="info-zone" viewbox="0 0 24 24">
      <title>info</title><path d="M17.44,5.6H14.19a2.3,2.3,0,0,0-4.39,0H6.56A1.58,1.58,0,0,0,5,7.2V18.4A1.58,1.58,0,0,0,6.56,20H17.44A1.58,1.58,0,0,0,19,18.4V7.2A1.58,1.58,0,0,0,17.44,5.6ZM12,5.6a0.8,0.8,0,1,1-.78.8A0.79,0.79,0,0,1,12,5.6ZM13.56,16.8H8.11V15.2h5.44v1.6Zm2.33-3.2H8.11V12h7.78v1.6Zm0-3.2H8.11V8.8h7.78v1.6Z"/>
    </symbol>
    <symbol id="info" viewbox="0 0 24 24">
      <title>info</title><path d="M15.07,18.38v1.5A0.12,0.12,0,0,1,15,20H9.21a0.12,0.12,0,0,1-.12-0.11v-1.5a0.12,0.12,0,0,1,.12-0.11h1.66v-8H9.19a0.12,0.12,0,0,1-.12-0.11V8.63a0.11,0.11,0,0,1,.12-0.11h3.92a0.12,0.12,0,0,1,.12.11v9.64H15A0.12,0.12,0,0,1,15.07,18.38Z"/><ellipse cx="11.65" cy="5.71" rx="1.8" ry="1.73"/>
    </symbol>
    <symbol id="permalink" viewbox="0 0 24 24">
      <title>link</title><path d="M5.36,18.69a4.49,4.49,0,0,0,6.34,0L14.34,16a0.42,0.42,0,0,0,0-.59l-1.65-1.65-1.46,1.46,0.46,0.46L10.22,17.2a2.39,2.39,0,0,1-3.38,0l0,0a2.39,2.39,0,0,1,0-3.38L8.27,12.3l0.46,0.46,1.46-1.46L8.54,9.65a0.42,0.42,0,0,0-.59,0L5.31,12.29a4.49,4.49,0,0,0,0,6.34Z"/><path d="M18.64,5.31a4.49,4.49,0,0,0-6.34,0L9.6,8a0.42,0.42,0,0,0,0,.59l1.65,1.65,1.51-1.51L12.3,8.27,13.78,6.8a2.39,2.39,0,0,1,3.38,0l0,0a2.39,2.39,0,0,1,0,3.38L15.73,11.7l-0.46-.46-1.51,1.51,1.65,1.65a0.42,0.42,0,0,0,.59,0l2.69-2.69a4.49,4.49,0,0,0,0-6.34Z"/><path d="M15.16,8.84a1,1,0,0,0-1.4,0l-0.44.44L11.8,10.79l-1.06,1.06L9.28,13.31l-0.44.44a1,1,0,0,0,1.4,1.4l0.44-.44,1.46-1.46L13.2,12.2l1.51-1.51,0.44-.44A1,1,0,0,0,15.16,8.84Z"/>
    </symbol>
    <symbol id="point" viewbox="0 0 24 24">
      <title>marker</title><path d="M13.67,14.07l-3.8-3.8,5.78-4.84a0.52,0.52,0,0,1,.73,0L18.5,7.56a0.52,0.52,0,0,1,0,.73Z"/><path d="M13.24,17.1L6.84,10.71A0.39,0.39,0,0,1,7.13,10L10,10.19l3.8,3.8,0.15,2.83A0.39,0.39,0,0,1,13.24,17.1Z"/><polygon points="4.01 19.94 4.01 19.94 9.32 13 10.95 14.63 4.01 19.94"/><path d="M19,8.89L15.06,5a0.62,0.62,0,0,1,0-.88h0a0.62,0.62,0,0,1,.88,0L19.82,8a0.62,0.62,0,0,1,0,.88h0A0.62,0.62,0,0,1,19,8.89Z"/>
    </symbol>
    <symbol id="polygon" viewbox="0 0 24 24">
      <title>polygon</title><rect x="6.04" y="8.9" width="2.05" height="0.97" transform="translate(-4.65 10.2) rotate(-57.04)"/><rect x="10.84" y="6.25" width="2.05" height="0.97"/><rect x="10.84" y="16.89" width="2.05" height="0.97"/><rect x="6.58" y="13.65" width="0.97" height="2.05" transform="translate(-6.85 6.2) rotate(-32.96)"/><path d="M8.68,6.28a0.45,0.45,0,1,1-.45.45,0.45,0.45,0,0,1,.45-0.45m0-1a1.45,1.45,0,1,0,1.45,1.45A1.45,1.45,0,0,0,8.68,5.28h0Z"/><path d="M8.68,16.87a0.45,0.45,0,1,1-.45.45,0.45,0.45,0,0,1,.45-0.45m0-1a1.45,1.45,0,1,0,1.45,1.45,1.45,1.45,0,0,0-1.45-1.45h0Z"/><path d="M5.45,11.58A0.45,0.45,0,1,1,5,12a0.45,0.45,0,0,1,.45-0.45m0-1A1.45,1.45,0,1,0,6.9,12a1.45,1.45,0,0,0-1.45-1.45h0Z"/><rect x="15.91" y="14.14" width="2.05" height="0.97" transform="translate(-4.55 20.88) rotate(-57.04)"/><rect x="16.45" y="8.31" width="0.97" height="2.05" transform="translate(-2.35 10.72) rotate(-32.96)"/><path d="M15.32,16.82a0.45,0.45,0,1,1-.45.45,0.45,0.45,0,0,1,.45-0.45m0-1a1.45,1.45,0,1,0,1.45,1.45,1.45,1.45,0,0,0-1.45-1.45h0Z"/><path d="M15.32,6.24a0.45,0.45,0,1,1-.45.45,0.45,0.45,0,0,1,.45-0.45m0-1a1.45,1.45,0,1,0,1.45,1.45,1.45,1.45,0,0,0-1.45-1.45h0Z"/><path d="M18.55,11.53a0.45,0.45,0,1,1-.45.45,0.45,0.45,0,0,1,.45-0.45m0-1A1.45,1.45,0,1,0,20,12a1.45,1.45,0,0,0-1.45-1.45h0Z"/>
    </symbol>
    <symbol id="polyline" viewbox="0 0 24 24">
      <title>line</title><rect x="7.6" y="11.42" width="8.81" height="1.15"/><rect x="7.16" y="9.22" width="5.75" height="1.15" transform="translate(-3.99 9.97) rotate(-45)"/><rect x="11.09" y="13.62" width="5.75" height="1.15" transform="translate(-5.95 14.03) rotate(-45)"/><path d="M9.89,17.54a0.73,0.73,0,1,1-.73.73,0.73,0.73,0,0,1,.73-0.73m0-1a1.73,1.73,0,1,0,1.73,1.73,1.73,1.73,0,0,0-1.73-1.73h0Z"/><path d="M14.13,5a0.73,0.73,0,1,1-.73.73A0.73,0.73,0,0,1,14.13,5m0-1a1.73,1.73,0,1,0,1.73,1.73A1.73,1.73,0,0,0,14.13,4h0Z"/>
    </symbol>
    <symbol id="rectangle" viewbox="0 0 24 24">
      <title>rectangle</title><rect x="8" y="8" width="8" height="1"/><rect x="8" y="15" width="8" height="1"/><rect x="18" y="11" width="1" height="2"/><rect x="5" y="11" width="1" height="2"/><path d="M5.5,8a0.5,0.5,0,1,1-.5.5A0.5,0.5,0,0,1,5.5,8m0-1A1.5,1.5,0,1,0,7,8.5,1.5,1.5,0,0,0,5.5,7h0Z"/><path d="M5.5,15a0.5,0.5,0,1,1-.5.5A0.5,0.5,0,0,1,5.5,15m0-1A1.5,1.5,0,1,0,7,15.5,1.5,1.5,0,0,0,5.5,14h0Z"/><path d="M18.5,8a0.5,0.5,0,1,1-.5.5A0.5,0.5,0,0,1,18.5,8m0-1A1.5,1.5,0,1,0,20,8.5,1.5,1.5,0,0,0,18.5,7h0Z"/><path d="M18.5,15a0.5,0.5,0,1,1-.5.5,0.5,0.5,0,0,1,.5-0.5m0-1A1.5,1.5,0,1,0,20,15.5,1.5,1.5,0,0,0,18.5,14h0Z"/>
    </symbol>
    <symbol id="savemap" viewbox="0 0 24 24">
      <title>save-map</title><path d="M16.44,4H5.78A1.78,1.78,0,0,0,4,5.78V18.22A1.78,1.78,0,0,0,5.78,20H18.22A1.78,1.78,0,0,0,20,18.22V7.56ZM12,18.22a2.67,2.67,0,1,1,2.67-2.67A2.66,2.66,0,0,1,12,18.22Zm2.67-8.89H5.78V5.78h8.89V9.33Z"/>
    </symbol>
    <symbol id="search" viewbox="0 0 24 24">
      <title>search</title><path d="M15.44,14.06H14.71l-0.26-.25a6,6,0,1,0-.64.64l0.25,0.26v0.72L18.64,20,20,18.64Zm-5.49,0a4.12,4.12,0,1,1,4.12-4.12A4.11,4.11,0,0,1,9.95,14.06Z"/>
    </symbol>
    <symbol id="share" viewbox="0 0 24 24">
      <title>share</title><path d="M16.82,15.31a2.34,2.34,0,0,0-1.57.62L9.52,12.6a2.22,2.22,0,0,0,0-1.12l5.66-3.3a2.4,2.4,0,1,0-.77-1.76,2.63,2.63,0,0,0,.07.56l-5.66,3.3a2.41,2.41,0,1,0,0,3.52l5.72,3.34a2.27,2.27,0,0,0-.06.52A2.34,2.34,0,1,0,16.82,15.31Z"/>
    </symbol>
    <symbol id="shift" viewbox="0 0 24 24">
      <title>shift</title><path d="M10.69,18.12L16.82,12,10.69,5.88,12.58,4l7,7a1.45,1.45,0,0,1,0,2.06l-7,7Z"/><path d="M4,18.12L10.13,12,4,5.88,5.89,4l7,7a1.45,1.45,0,0,1,0,2.06l-7,7Z"/>
    </symbol>
    <symbol id="uploadfile" viewbox="0 0 24 24">
      <title>export</title><path d="M9.18,16.24h5.65V10.59h3.76L12,4,5.41,10.59H9.18v5.65ZM5.41,18.12H18.59V20H5.41V18.12Z"/>
    </symbol>
    <symbol id="zoom-in" viewbox="0 0 24 24">
      <title>zoom-in</title><path d="M20,13.14H13.14V20H10.86V13.14H4V10.86h6.86V4h2.29v6.86H20v2.29Z"/>
    </symbol>
    <symbol id="zoom-out" viewbox="0 0 24 24">
      <title>zoom-out</title><path d="M20,13.12H4V10.83H20v2.29Z"/>
    </symbol></svg>